<svg width="271" height="270" viewBox="0 0 271 270" fill="none" xmlns="http://www.w3.org/2000/svg">
<path fill-rule="evenodd" clip-rule="evenodd" d="M86.1582 77.2037C82.9801 80.5494 80.9371 85.6457 81.064 89.9141C81.2134 94.9492 80.7086 93.9635 102.174 131.143L121.868 165.254L120.608 167.411C115.57 176.033 113 188.096 114.208 197.454C115.071 204.148 116.275 207.525 120.219 214.314C123.213 219.469 124.271 220.972 127.151 224.168C137.97 236.169 153.02 246.854 173.621 257.156C184.117 262.406 185.518 262.854 187.628 261.635C189.493 260.559 190.274 258.855 189.842 256.807C189.428 254.846 188.513 254.216 180.95 250.68C168.647 244.927 154.542 236.351 145.682 229.236C128.608 215.525 121.773 203.124 123.11 188.279C123.466 184.313 126.09 175.33 127.054 174.773C127.182 174.7 130.922 180.936 135.366 188.632C144.315 204.132 144.326 204.148 147.201 203.927C149.138 203.779 149.396 203.63 150.493 202.027C152.241 199.472 154.395 203.582 120.777 145.335C91.5639 94.7186 90.3038 92.4729 90.14 90.7352C89.4525 83.4484 97.0726 78.7742 103.384 82.6107C104.485 83.2797 106.685 86.9303 127.783 123.1L150.971 162.855L152.449 163.259C153.447 163.532 154.468 163.428 155.594 162.939C156.998 162.328 157.35 161.965 157.82 160.647C158.127 159.785 158.255 158.652 158.105 158.128C157.954 157.604 155.485 151.795 152.619 145.219C148.669 136.156 147.384 132.836 147.309 131.504C147.104 127.872 149.724 124.192 153.081 123.394C157.101 122.438 160.371 123.874 162.474 127.515C163.153 128.691 165.646 133.764 168.013 138.788C170.381 143.812 172.697 148.37 173.158 148.915C174.507 150.508 176.508 150.76 178.529 149.593C179.854 148.828 180.338 148.286 180.656 147.214C181.142 145.569 181 145.146 177.375 137.459C174.68 131.744 174.593 131.466 174.967 129.83C176.356 123.769 183.269 121.175 188.371 124.8C189.689 125.736 190.436 126.858 195.041 134.818C199.583 142.669 200.365 143.848 201.342 144.319C203.136 145.183 203.957 145.153 205.7 144.163C207.012 143.418 207.421 142.929 207.734 141.734C208.13 140.225 208.054 139.78 206.942 137.084C205.547 133.703 206.598 129.337 209.343 127.113C212.027 124.936 216.408 124.682 219.296 126.534C220.744 127.463 221.178 128.09 224.961 134.73C239.889 160.935 246.341 192.258 242.239 218.62C241.454 223.663 241.577 224.787 243.053 226.113C244.538 227.446 246.473 227.661 248.169 226.682C250.057 225.592 250.511 224.491 251.361 218.933C253.627 204.124 252.45 185.212 248.212 168.345C243.668 150.264 231.991 125.052 225.871 120.11C221.983 116.971 216.657 115.622 211.443 116.456C207.855 117.031 203.502 119.615 201.266 122.498L199.587 124.663L198.521 122.826C195.631 117.846 189.69 114.254 183.881 113.972C179.314 113.752 173.711 115.983 170.671 119.234C169.889 120.07 169.216 120.728 169.174 120.696C169.133 120.664 168.097 119.711 166.871 118.58C163.085 115.083 157.603 113.417 152.415 114.186C150.587 114.457 149.266 114.978 146.833 116.389C143.413 118.372 141.772 120.024 140.337 122.928C139.891 123.833 139.442 124.621 139.34 124.68C139.238 124.739 133.263 114.581 126.061 102.108C111.818 77.4376 111.663 77.2077 107.512 74.6443C104.821 72.9824 100.266 71.9753 96.7456 72.264C94.2965 72.4645 93.2201 72.7983 90.6277 74.1594C88.7208 75.1605 86.9599 76.3596 86.1582 77.2037Z" fill="white"/>
<path d="M147.938 97.2141C150.91 97.4636 153.547 95.2538 153.528 92.2715C153.464 82.0848 150.807 72.0497 145.766 63.1293C139.837 52.6369 130.886 44.1732 120.078 38.8405C109.271 33.5078 97.1078 31.5533 85.1735 33.2316C73.2393 34.91 62.0871 40.1433 53.1695 48.2501C44.2519 56.3568 37.9822 66.9611 35.1771 78.6818C32.3721 90.4024 33.1616 102.696 37.4429 113.962C41.7243 125.227 49.2989 134.943 59.1803 141.842C67.5811 147.708 77.3183 151.307 87.4528 152.339C90.4198 152.641 92.8702 150.226 92.9043 147.243C92.9385 144.261 90.541 141.847 87.5806 141.486C79.6182 140.516 71.9845 137.61 65.3631 132.987C57.2604 127.329 51.0492 119.363 47.5385 110.125C44.0278 100.887 43.3804 90.8065 45.6805 81.1955C47.9807 71.5846 53.1218 62.889 60.4342 56.2415C67.7467 49.594 76.8915 45.3026 86.6776 43.9264C96.4636 42.5502 106.437 44.1528 115.3 48.5256C124.162 52.8984 131.502 59.8387 136.364 68.4425C140.337 75.4733 142.504 83.3487 142.713 91.3672C142.79 94.3486 144.966 96.9646 147.938 97.2141Z" fill="white"/>
<path opacity="0.34" d="M180.285 100.408C183.358 100.666 186.077 98.382 186.15 95.2981C186.548 78.5399 182.413 61.9466 174.132 47.2924C164.934 31.0138 151.046 17.8825 134.279 9.60901C117.511 1.33549 98.6401 -1.6968 80.1245 0.907099C61.6089 3.511 44.3066 11.6304 30.4712 24.2077C16.6358 36.7851 6.90857 53.2374 2.55659 71.4216C-1.79538 89.6059 -0.570426 108.679 6.07191 126.158C12.7142 143.636 24.4661 158.709 39.7967 169.413C53.5975 179.049 69.7226 184.742 86.4428 185.939C89.5196 186.159 92.0513 183.67 92.0867 180.585C92.122 177.501 89.6468 174.992 86.5719 174.746C72.097 173.591 58.1524 168.605 46.1917 160.254C32.7007 150.834 22.3591 137.57 16.5139 122.189C10.6686 106.808 9.59065 90.0238 13.4204 74.0216C17.2501 58.0195 25.8101 43.5414 37.9852 32.4734C50.1604 21.4053 65.3864 14.2603 81.6802 11.9688C97.9739 9.6774 114.58 12.3458 129.336 19.6265C144.091 26.9072 156.312 38.4627 164.407 52.7879C171.584 65.4882 175.222 79.8437 174.996 94.3628C174.948 97.4471 177.211 100.15 180.285 100.408Z" fill="white"/>
</svg>
