<svg width="3840" height="2160" viewBox="0 0 3840 2160" fill="none" xmlns="http://www.w3.org/2000/svg">
<path fill-rule="evenodd" clip-rule="evenodd" d="M2000.16 847.204C1996.98 850.549 1994.94 855.646 1995.06 859.914C1995.21 864.949 1994.71 863.963 2016.17 901.143L2035.87 935.254L2034.61 937.411C2029.57 946.033 2027 958.096 2028.21 967.454C2029.07 974.148 2030.28 977.525 2034.22 984.314C2037.21 989.469 2038.27 990.972 2041.15 994.168C2051.97 1006.17 2067.02 1016.85 2087.62 1027.16C2098.12 1032.41 2099.52 1032.85 2101.63 1031.64C2103.49 1030.56 2104.27 1028.86 2103.84 1026.81C2103.43 1024.85 2102.51 1024.22 2094.95 1020.68C2082.65 1014.93 2068.54 1006.35 2059.68 999.236C2042.61 985.525 2035.77 973.124 2037.11 958.279C2037.47 954.313 2040.09 945.33 2041.05 944.773C2041.18 944.7 2044.92 950.936 2049.37 958.632C2058.31 974.132 2058.33 974.148 2061.2 973.927C2063.14 973.779 2063.4 973.63 2064.49 972.027C2066.24 969.472 2068.39 973.582 2034.78 915.335C2005.56 864.719 2004.3 862.473 2004.14 860.735C2003.45 853.448 2011.07 848.774 2017.38 852.611C2018.48 853.28 2020.68 856.93 2041.78 893.1L2064.97 932.855L2066.45 933.259C2067.45 933.532 2068.47 933.428 2069.59 932.939C2071 932.328 2071.35 931.965 2071.82 930.647C2072.13 929.785 2072.26 928.652 2072.1 928.128C2071.95 927.604 2069.49 921.795 2066.62 915.219C2062.67 906.156 2061.38 902.836 2061.31 901.504C2061.1 897.872 2063.72 894.192 2067.08 893.394C2071.1 892.438 2074.37 893.874 2076.47 897.515C2077.15 898.691 2079.65 903.764 2082.01 908.788C2084.38 913.812 2086.7 918.37 2087.16 918.915C2088.51 920.508 2090.51 920.76 2092.53 919.593C2093.85 918.828 2094.34 918.286 2094.66 917.214C2095.14 915.569 2095 915.146 2091.38 907.459C2088.68 901.744 2088.59 901.466 2088.97 899.83C2090.36 893.769 2097.27 891.175 2102.37 894.8C2103.69 895.736 2104.44 896.858 2109.04 904.818C2113.58 912.669 2114.36 913.848 2115.34 914.319C2117.14 915.183 2117.96 915.153 2119.7 914.163C2121.01 913.418 2121.42 912.929 2121.73 911.734C2122.13 910.225 2122.05 909.78 2120.94 907.084C2119.55 903.703 2120.6 899.337 2123.34 897.113C2126.03 894.936 2130.41 894.682 2133.3 896.534C2134.74 897.463 2135.18 898.09 2138.96 904.73C2153.89 930.935 2160.34 962.258 2156.24 988.62C2155.45 993.663 2155.58 994.787 2157.05 996.113C2158.54 997.446 2160.47 997.661 2162.17 996.682C2164.06 995.592 2164.51 994.491 2165.36 988.933C2167.63 974.124 2166.45 955.212 2162.21 938.345C2157.67 920.264 2145.99 895.052 2139.87 890.11C2135.98 886.971 2130.66 885.622 2125.44 886.456C2121.85 887.031 2117.5 889.615 2115.27 892.498L2113.59 894.663L2112.52 892.826C2109.63 887.846 2103.69 884.254 2097.88 883.972C2093.31 883.752 2087.71 885.983 2084.67 889.234C2083.89 890.07 2083.22 890.728 2083.17 890.696C2083.13 890.664 2082.1 889.711 2080.87 888.58C2077.09 885.083 2071.6 883.417 2066.41 884.186C2064.59 884.457 2063.27 884.978 2060.83 886.389C2057.41 888.372 2055.77 890.024 2054.34 892.928C2053.89 893.833 2053.44 894.621 2053.34 894.68C2053.24 894.739 2047.26 884.581 2040.06 872.108C2025.82 847.438 2025.66 847.208 2021.51 844.644C2018.82 842.982 2014.27 841.975 2010.75 842.264C2008.3 842.464 2007.22 842.798 2004.63 844.159C2002.72 845.16 2000.96 846.36 2000.16 847.204Z" fill="white"/>
<path d="M2061.94 867.214C2064.91 867.464 2067.55 865.254 2067.53 862.271C2067.46 852.085 2064.81 842.05 2059.77 833.129C2053.84 822.637 2044.89 814.173 2034.08 808.84C2023.27 803.508 2011.11 801.553 1999.17 803.232C1987.24 804.91 1976.09 810.143 1967.17 818.25C1958.25 826.357 1951.98 836.961 1949.18 848.682C1946.37 860.402 1947.16 872.696 1951.44 883.962C1955.72 895.227 1963.3 904.943 1973.18 911.842C1981.58 917.708 1991.32 921.307 2001.45 922.339C2004.42 922.641 2006.87 920.226 2006.9 917.243C2006.94 914.261 2004.54 911.847 2001.58 911.486C1993.62 910.516 1985.98 907.61 1979.36 902.987C1971.26 897.329 1965.05 889.363 1961.54 880.125C1958.03 870.887 1957.38 860.806 1959.68 851.196C1961.98 841.585 1967.12 832.889 1974.43 826.242C1981.75 819.594 1990.89 815.303 2000.68 813.926C2010.46 812.55 2020.44 814.153 2029.3 818.526C2038.16 822.898 2045.5 829.839 2050.36 838.442C2054.34 845.473 2056.5 853.349 2056.71 861.367C2056.79 864.349 2058.97 866.965 2061.94 867.214Z" fill="white"/>
<path opacity="0.34" d="M2094.28 870.408C2097.36 870.666 2100.08 868.382 2100.15 865.298C2100.55 848.54 2096.41 831.947 2088.13 817.292C2078.93 801.014 2065.05 787.883 2048.28 779.609C2031.51 771.335 2012.64 768.303 1994.12 770.907C1975.61 773.511 1958.31 781.63 1944.47 794.208C1930.64 806.785 1920.91 823.237 1916.56 841.422C1912.2 859.606 1913.43 878.679 1920.07 896.158C1926.71 913.636 1938.47 928.709 1953.8 939.413C1967.6 949.049 1983.72 954.742 2000.44 955.939C2003.52 956.159 2006.05 953.67 2006.09 950.585C2006.12 947.501 2003.65 944.992 2000.57 944.746C1986.1 943.591 1972.15 938.605 1960.19 930.254C1946.7 920.834 1936.36 907.57 1930.51 892.189C1924.67 876.808 1923.59 860.024 1927.42 844.022C1931.25 828.019 1939.81 813.541 1951.99 802.473C1964.16 791.405 1979.39 784.26 1995.68 781.969C2011.97 779.677 2028.58 782.346 2043.34 789.627C2058.09 796.907 2070.31 808.463 2078.41 822.788C2085.58 835.488 2089.22 849.844 2089 864.363C2088.95 867.447 2091.21 870.15 2094.28 870.408Z" fill="white"/>
</svg>
